<svg xmlns="http://www.w3.org/2000/svg" xmlns:xlink="http://www.w3.org/1999/xlink" width="500" zoomAndPan="magnify" viewBox="0 0 375 374.999991" height="500" preserveAspectRatio="xMidYMid meet" version="1.0"><defs><filter x="0%" y="0%" width="100%" height="100%" id="f2449578fd"><feColorMatrix values="0 0 0 0 1 0 0 0 0 1 0 0 0 0 1 0 0 0 1 0" color-interpolation-filters="sRGB"/></filter><mask id="dd8f14fec8"><g filter="url(#f2449578fd)"><rect x="-37.5" width="450" fill="#000000" y="-37.499999" height="449.999989" fill-opacity="0.3"/></g></mask><clipPath id="c017cb5f7b"><path d="M 0.398438 8 L 232.71875 8 L 232.71875 366.238281 L 0.398438 366.238281 Z M 0.398438 8 " clip-rule="nonzero"/></clipPath><clipPath id="9e7c0cc828"><rect x="0" width="233" y="0" height="367"/></clipPath></defs><g mask="url(#dd8f14fec8)"><g transform="matrix(1, 0, 0, 1, 62, 0)"><g clip-path="url(#9e7c0cc828)"><g clip-path="url(#c017cb5f7b)"><path fill="#004aad" d="M 170.144531 218.75 L 232.539062 218.75 L 104.265625 359.761719 C 90.160156 375.273438 67.179688 359.929688 71.914062 338.160156 L 86.914062 269.214844 C 93.449219 279.273438 104.390625 285.714844 116.554688 285.714844 C 117.269531 285.714844 118 285.695312 118.714844 285.652344 C 133.835938 284.738281 146.738281 274.378906 150.90625 259.808594 L 162.851562 218 C 165.226562 218.496094 167.667969 218.75 170.140625 218.75 Z M 38.8125 174.105469 L 47.6875 151.917969 C 53.078125 138.460938 66.050781 129.59375 80.542969 129.464844 C 93.046875 129.664062 102.988281 134.949219 109.683594 144.09375 L 117.949219 115.191406 C 122.292969 99.984375 136.121094 89.453125 151.917969 89.285156 C 155.242188 89.371094 158.460938 90.082031 161.601562 90.988281 L 174.550781 37.402344 C 179.71875 16.023438 157.578125 -0.0351562 143.011719 14.523438 L 7.234375 150.214844 C 0.664062 156.785156 -0.6875 166.152344 1.613281 174.109375 L 38.8125 174.109375 Z M 38.8125 174.105469 " fill-opacity="1" fill-rule="nonzero"/></g></g></g></g><path fill="#004aad" d="M 0 209.820312 C 0 204.886719 3.992188 200.894531 8.929688 200.894531 L 118.949219 200.894531 L 134.574219 161.863281 C 135.917969 158.5 139.160156 156.285156 142.769531 156.25 C 146.484375 155.542969 149.675781 158.367188 151.089844 161.71875 L 176.949219 223.152344 L 205.707031 122.550781 C 206.785156 118.75 210.238281 116.113281 214.199219 116.070312 C 217.425781 116.515625 221.644531 118.589844 222.8125 122.375 L 238.734375 174.105469 L 366.070312 174.105469 C 371.007812 174.105469 375 178.101562 375 183.035156 C 375 187.972656 371.007812 191.964844 366.070312 191.964844 L 232.144531 191.964844 C 228.21875 191.964844 224.765625 189.410156 223.613281 185.660156 L 214.597656 156.390625 L 187.152344 252.449219 C 186.121094 256.09375 182.894531 258.683594 179.113281 258.910156 C 178.921875 258.917969 178.746094 258.929688 178.570312 258.929688 C 174.996094 258.929688 171.734375 256.792969 170.339844 253.460938 L 143.066406 188.6875 L 133.28125 213.136719 C 131.941406 216.527344 128.644531 218.75 125 218.75 L 8.929688 218.75 C 3.992188 218.75 0 214.757812 0 209.820312 Z M 0 209.820312 " fill-opacity="1" fill-rule="nonzero"/></svg>